<svg xmlns="http://www.w3.org/2000/svg" version="1.1" xmlns:xlink="http://www.w3.org/1999/xlink" xmlns:svgjs="http://svgjs.dev/svgjs" width="1500" height="1500" viewBox="0 0 1500 1500"><rect width="1500" height="1500" fill="#ffffff"></rect><g transform="matrix(0.6666666666666666,0,0,0.6666666666666666,248.89177215754495,168.13906236026645)"><svg viewBox="0 0 212 247" data-background-color="#ffffff" preserveAspectRatio="xMidYMid meet" height="1747" width="1500" xmlns="http://www.w3.org/2000/svg" xmlns:xlink="http://www.w3.org/1999/xlink"><g id="tight-bounds" transform="matrix(1,0,0,1,0.23494430260046784,-0.09997365579206985)"><svg viewBox="0 0 211.53011139479906 247.2" height="247.2" width="211.53011139479906"><g><svg viewBox="0 0 211.53011139479906 247.2" height="247.2" width="211.53011139479906"><g><svg viewBox="0 0 211.53011139479906 247.2" height="247.2" width="211.53011139479906"><g id="textblocktransform"><svg viewBox="0 0 211.53011139479906 247.2" height="247.2" width="211.53011139479906" id="textblock"><g><svg viewBox="0 0 211.53011139479906 247.2" height="247.2" width="211.53011139479906"><path d="M211.035 53.02C210.04 27.36 207.206 20.227 207.206 20.227 198.505-6.202 187.645-0.506 177.89 3.292 160.666 3.446 143.512 9.091 126.328 12.119 90.259 12.581 53.882 4.986 17.993 23.717 14.621 29.464-3.497 24.846 0.6 56.304 1.674 69.39 5.592 83.913 5.472 95.922 6.009 98.026 6.755 93.202 7.074 96.23 8.187 104.39 10.007 100.541 11.499 105.365 9.42 118.246 10.912 128.971 12.334 140.21 9.828 143.135 6.616 141.749 5.174 151.449 5.025 158.479 4.219 157.145 3.334 156.837 2.688 156.632 1.385 157.402 1.604 159.608 2.35 167.152-0.852 171.514 1.157 178.904-0.226 186.91 2.111 193.838 1.793 202.511 1.753 204.255 1.972 205.744 2.32 206.154 3.861 208.361 1.614 212.672 1.853 217.342 17.664 249.262 34.819 227.195 51.018 241.872 55.225 231.608 52.062 245.516 53.743 243.36 55.056 240.846 56.01 251.263 57.492 245.362 57.721 243.668 57.373 239.665 58.188 240.435 58.616 240.846 58.994 240.743 59.053 238.382 59.143 234.841 58.357 237.048 58.148 235.201 60.406 225.861 59.849 248.081 61.967 247.158 61.868 244.438 61.251 240.538 62.514 241.051 63.767 237.151 63.807 233.918 64.921 242.693 64.96 244.592 65.159 245.926 65.477 246.85 68.958 237.305 72.419 250.237 76.068 245.926 78.306 241.205 80.454 248.492 82.721 246.696 83.517 245.259 84.322 242.693 85.088 247.004 94.466 247.928 104.46 244.079 113.35 247.158 137.108 241.41 162.496 249.518 187.546 241.923 193.453 238.998 199.589 234.841 205.347 231.506 205.347 231.506 210.011 222.371 210.011 181.316S211.005 145.393 211.154 112.703C211.303 80.013 211.999 78.679 211.005 53.02Z" opacity="1" fill="#c10000" data-fill-palette-color="tertiary"></path><g transform="matrix(1,0,0,1,55.76832,26.230666666666668)"><svg width="99.99347139479906" viewBox="3 -35.25 18.1 35.25" height="194.73866666666666" data-palette-color="#ffffff"><path d="M21.1 0L16.45 0 10.05-17.2 14.7-17.2 21.1 0ZM11.05-14.95L5.95-14.95 5.95-18.85 11.05-18.85 11.05-14.95ZM11.05-31.3L5.95-31.3 5.95-35.25 11.05-35.25 11.05-31.3ZM20.9-24.25L16.35-24.25 16.35-25.95 20.9-25.95 20.9-24.25ZM20.9-25.9L20.9-25.9 16.35-25.9Q16.35-28.5 14.93-29.9 13.5-31.3 11-31.3L11-31.3 11-35.25Q13.95-35.25 16.18-34.08 18.4-32.9 19.65-30.78 20.9-28.65 20.9-25.9ZM16.35-24.3L20.9-24.3Q20.9-21.55 19.65-19.43 18.4-17.3 16.18-16.13 13.95-14.95 11-14.95L11-14.95 11-18.85Q13.5-18.85 14.93-20.3 16.35-21.75 16.35-24.3L16.35-24.3ZM7.55 0L3 0 3-35.25 7.55-35.25 7.55 0Z" opacity="1" transform="matrix(1,0,0,1,0,0)" fill="#ffffff" class="wordmark-text-0" data-fill-palette-color="quaternary" id="text-0"></path></svg></g></svg></g></svg></g></svg></g><g></g></svg></g><defs></defs></svg><rect width="211.53011139479906" height="247.2" fill="none" stroke="none" visibility="hidden"></rect></g></svg></g></svg>